<?xml version="1.0" encoding="UTF-8" standalone="yes"?>
<svg xmlns="http://www.w3.org/2000/svg"
    xmlns:xlink="http://www.w3.org/1999/xlink" width="900px" height="479px" viewBox="-286.3659525188188 0 900 479" version="1.1">
    <g id="blue-water">
        <g id='iconGroup'>
            <g id="surface1">
                <path style=" stroke:none;fill-rule:nonzero;fill:rgb(0%,0%,0%);fill-opacity:1;" d="M 163.25 181.515625 L 157.933594 181.515625 C 157.933594 164.730469 150.15625 144.324219 137.449219 127.695312 C 126.230469 113.023438 111.257812 101.46875 94.527344 98.230469 L 96.523438 87.769531 C 110.085938 90.386719 122.519531 97.527344 133.074219 107.207031 C 132.875 105.023438 132.796875 102.875 132.796875 100.769531 C 132.757812 89.761719 135.027344 79.769531 138.078125 72.980469 L 147.773438 77.3125 C 145.230469 82.933594 143.355469 91.324219 143.394531 100.726562 C 143.433594 108.144531 144.683594 116.144531 147.808594 123.871094 C 154.378906 133.003906 159.65625 143.074219 163.253906 153.179688 C 166.847656 143.109375 172.085938 133.003906 178.695312 123.871094 C 181.820312 116.183594 183.074219 108.144531 183.109375 100.726562 C 183.152344 91.324219 181.273438 82.933594 178.734375 77.3125 L 188.425781 72.980469 C 191.480469 79.769531 193.78125 89.761719 193.707031 100.769531 C 193.707031 102.875 193.589844 105.023438 193.429688 107.207031 C 204.023438 97.527344 216.457031 90.425781 229.984375 87.769531 L 231.976562 98.230469 C 215.246094 101.46875 200.273438 113.0625 189.054688 127.695312 C 176.347656 144.324219 168.566406 164.695312 168.566406 181.515625 Z M 322.980469 112.242188 C 321.496094 115.949219 318.5625 119.03125 314.574219 120.59375 C 310.589844 122.15625 306.328125 121.882812 302.734375 120.164062 C 304.214844 116.457031 307.152344 113.375 311.136719 111.8125 C 315.125 110.25 319.386719 110.523438 322.980469 112.242188 Z M 326.5 162.78125 C 322.746094 165.046875 318.09375 165.867188 313.523438 164.578125 C 308.949219 163.328125 305.351562 160.242188 303.316406 156.34375 C 307.070312 154.078125 311.722656 153.261719 316.296875 154.546875 C 320.871094 155.796875 324.464844 158.878906 326.5 162.78125 Z M 310.589844 190.726562 C 306.210938 191.039062 301.714844 189.632812 298.195312 186.433594 C 294.714844 183.230469 292.917969 178.859375 292.878906 174.492188 C 297.257812 174.175781 301.753906 175.582031 305.273438 178.78125 C 308.75 181.984375 310.550781 186.355469 310.589844 190.726562 Z M 288.425781 200.949219 C 281.976562 200.796875 275.601562 198.101562 270.988281 192.914062 C 266.375 187.71875 264.382812 181.125 264.929688 174.726562 C 271.378906 174.878906 277.753906 177.574219 282.363281 182.765625 C 286.980469 187.953125 288.96875 194.550781 288.425781 200.949219 Z M 163.25 81.839844 L 163.289062 81.878906 C 165.597656 79.695312 167.003906 76.648438 167.003906 73.214844 C 167.003906 69.816406 165.558594 66.777344 163.25 64.628906 C 160.945312 66.777344 159.5 69.820312 159.5 73.214844 C 159.5 76.609375 160.90625 79.691406 163.210938 81.878906 Z M 163.25 34.382812 L 163.328125 34.421875 C 167.941406 30.089844 170.796875 23.925781 170.753906 17.132812 C 170.71875 10.34375 167.863281 4.253906 163.25 -0.0390625 C 158.675781 4.253906 155.785156 10.378906 155.746094 17.132812 C 155.707031 23.960938 158.597656 30.089844 163.171875 34.421875 Z M 163.25 122.742188 L 163.328125 122.777344 C 167.902344 118.488281 170.753906 112.398438 170.753906 105.648438 L 170.753906 105.53125 C 170.796875 98.699219 167.902344 92.574219 163.328125 88.242188 L 163.25 88.28125 L 163.171875 88.242188 C 158.5625 92.574219 155.707031 98.738281 155.746094 105.53125 L 155.746094 105.648438 C 155.785156 112.398438 158.597656 118.488281 163.171875 122.777344 Z M 207.148438 13.503906 C 209.339844 16.351562 210.394531 20.097656 209.730469 23.925781 C 209.105469 27.746094 206.878906 30.949219 203.867188 32.9375 C 201.679688 30.089844 200.625 26.34375 201.289062 22.519531 C 201.914062 18.695312 204.140625 15.492188 207.148438 13.503906 Z M 184.246094 16.039062 C 187.996094 18.226562 190.890625 21.933594 191.90625 26.5 C 192.960938 31.066406 191.945312 35.628906 189.519531 39.261719 C 185.769531 37.074219 182.875 33.367188 181.859375 28.800781 C 180.800781 24.234375 181.820312 19.671875 184.246094 16.039062 Z M 172.945312 38.597656 C 177.597656 41.171875 181.234375 45.582031 182.679688 51.164062 C 184.085938 56.746094 183.03125 62.367188 180.140625 66.851562 C 175.488281 64.277344 171.851562 59.867188 170.402344 54.285156 C 169 48.703125 170.050781 43.085938 172.945312 38.597656 Z M 293.820312 70.328125 C 293.464844 74.269531 291.511719 78.09375 288.148438 80.746094 C 284.75 83.398438 280.605469 84.335938 276.65625 83.714844 C 277.007812 79.769531 278.964844 75.945312 282.363281 73.292969 C 285.765625 70.640625 289.910156 69.703125 293.859375 70.328125 Z M 259.886719 38.792969 C 260.355469 42.148438 259.535156 45.660156 257.269531 48.511719 C 255 51.359375 251.757812 52.957031 248.355469 53.234375 C 247.882812 49.875 248.707031 46.363281 250.972656 43.515625 C 253.238281 40.667969 256.484375 39.066406 259.886719 38.792969 Z M 225.601562 24 C 227.558594 28.375 227.714844 33.523438 225.679688 38.285156 C 223.648438 43.046875 219.816406 46.480469 215.28125 48.121094 C 213.328125 43.75 213.171875 38.597656 215.203125 33.835938 C 217.238281 29.074219 221.066406 25.640625 225.601562 24 Z M 200.273438 39.808594 C 204.535156 44.488281 206.878906 50.851562 206.332031 57.640625 C 205.785156 64.433594 202.421875 70.328125 197.457031 74.269531 C 193.195312 69.585938 190.851562 63.222656 191.398438 56.433594 C 191.945312 49.640625 195.308594 43.75 200.273438 39.808594 Z M 238.269531 50.421875 C 239.753906 57.175781 238.542969 64.511719 234.320312 70.675781 C 230.097656 76.84375 223.648438 80.628906 216.804688 81.683594 C 215.324219 74.933594 216.535156 67.59375 220.757812 61.429688 C 224.976562 55.261719 231.429688 51.476562 238.269531 50.421875 Z M 269.035156 62.285156 C 268.722656 69.195312 265.671875 75.984375 260.003906 80.863281 C 254.335938 85.742188 247.144531 87.734375 240.265625 86.992188 C 240.578125 80.082031 243.625 73.292969 249.292969 68.414062 C 254.960938 63.535156 262.15625 61.546875 269.035156 62.285156 Z M 324.703125 138.039062 C 320.441406 142.761719 314.304688 145.765625 307.421875 145.921875 C 300.542969 146.039062 294.289062 143.269531 289.832031 138.703125 C 294.09375 133.980469 300.230469 130.976562 307.109375 130.816406 C 313.988281 130.703125 320.242188 133.472656 324.703125 138.039062 Z M 302.496094 94.367188 C 302.222656 100.730469 299.410156 106.972656 294.210938 111.460938 C 289.011719 115.949219 282.402344 117.785156 276.070312 117.082031 C 276.34375 110.722656 279.160156 104.476562 284.359375 99.988281 C 289.558594 95.5 296.164062 93.664062 302.496094 94.367188 Z M 272.554688 91.011719 C 272.199219 98.894531 268.722656 106.621094 262.273438 112.164062 C 255.820312 117.703125 247.613281 120.007812 239.753906 119.148438 C 240.105469 111.265625 243.585938 103.539062 250.035156 97.996094 C 256.484375 92.453125 264.695312 90.152344 272.554688 91.011719 Z M 296.75 165.355469 C 290.496094 167.660156 283.34375 167.464844 276.929688 164.265625 C 270.519531 161.066406 266.066406 155.445312 264.148438 149.082031 C 270.402344 146.78125 277.554688 146.976562 284.007812 150.175781 C 290.414062 153.375 294.875 158.996094 296.789062 165.355469 Z M 222.164062 267.101562 L 210.042969 267.101562 C 198.042969 263.316406 190.1875 253.363281 186.667969 240.566406 C 183.933594 230.613281 183.773438 218.941406 186.277344 207.078125 C 187.996094 198.921875 190.96875 190.6875 195.226562 182.804688 C 197.105469 180.226562 199.609375 178.628906 202.226562 177.925781 C 204.335938 177.378906 206.488281 177.378906 208.441406 177.925781 C 210.28125 178.433594 211.960938 179.449219 213.132812 180.894531 C 214.460938 182.492188 215.28125 184.714844 215.28125 187.566406 L 215.28125 245.640625 L 225.953125 245.640625 L 225.953125 187.566406 C 225.953125 182.101562 224.195312 177.574219 221.34375 174.140625 C 218.722656 170.9375 215.164062 168.753906 211.296875 167.660156 C 209.617188 167.195312 207.855469 166.921875 206.097656 166.84375 C 209.027344 163.40625 212.3125 160.089844 215.871094 157.046875 C 218.371094 155.71875 220.992188 155.09375 223.609375 155.09375 C 227.359375 155.09375 231.074219 156.34375 234.398438 158.453125 C 237.839844 160.675781 240.847656 163.800781 242.996094 167.503906 C 245.109375 171.136719 246.359375 175.3125 246.359375 179.683594 L 246.359375 234.085938 L 257.03125 234.085938 L 257.03125 179.683594 C 257.03125 173.4375 255.234375 167.425781 252.222656 162.238281 C 249.210938 157.046875 244.992188 152.636719 240.144531 149.554688 C 237.683594 147.992188 235.0625 146.742188 232.367188 145.882812 C 246.128906 138.546875 262.894531 134.058594 282.792969 134.019531 L 282.792969 123.402344 C 251.25 123.484375 226.738281 133.785156 208.988281 149.046875 C 209.730469 143.855469 210.082031 137.726562 209.886719 130.390625 L 199.253906 130.664062 C 199.527344 140.34375 198.707031 147.523438 197.378906 153.300781 C 196.164062 158.683594 194.445312 162.898438 192.804688 166.683594 C 184.246094 178.589844 178.652344 191.859375 175.875 204.894531 C 173.023438 218.398438 173.257812 231.746094 176.425781 243.335938 C 179.007812 252.703125 183.5 260.859375 189.871094 267.0625 L 136.785156 267.0625 C 143.160156 260.859375 147.652344 252.664062 150.234375 243.335938 C 153.4375 231.746094 153.636719 218.398438 150.78125 204.894531 C 148.042969 191.820312 142.414062 178.589844 133.855469 166.683594 C 132.210938 162.9375 130.53125 158.726562 129.28125 153.300781 C 127.949219 147.5625 127.132812 140.34375 127.402344 130.664062 L 116.769531 130.390625 C 116.574219 137.726562 116.925781 143.816406 117.671875 149.046875 C 99.960938 133.824219 75.449219 123.484375 43.863281 123.402344 L 43.863281 134.019531 C 63.761719 134.058594 80.53125 138.546875 94.292969 145.882812 C 91.59375 146.742188 88.976562 147.992188 86.515625 149.554688 C 81.628906 152.675781 77.40625 157.085938 74.433594 162.238281 C 71.425781 167.425781 69.625 173.4375 69.625 179.683594 L 69.625 234.085938 L 80.296875 234.085938 L 80.296875 179.683594 C 80.296875 175.3125 81.546875 171.136719 83.660156 167.503906 C 85.808594 163.800781 88.820312 160.675781 92.257812 158.453125 C 95.582031 156.34375 99.296875 155.09375 103.050781 155.09375 C 105.667969 155.09375 108.289062 155.71875 110.789062 157.046875 C 114.347656 160.089844 117.59375 163.40625 120.5625 166.84375 C 118.804688 166.921875 117.042969 167.195312 115.363281 167.660156 C 111.492188 168.753906 107.972656 170.9375 105.316406 174.140625 C 102.464844 177.574219 100.703125 182.101562 100.703125 187.566406 L 100.703125 245.640625 L 111.378906 245.640625 L 111.378906 187.566406 C 111.378906 184.714844 112.195312 182.492188 113.527344 180.894531 C 114.738281 179.449219 116.378906 178.433594 118.214844 177.925781 C 120.171875 177.378906 122.320312 177.339844 124.433594 177.925781 C 127.050781 178.628906 129.554688 180.226562 131.429688 182.804688 C 135.691406 190.6875 138.664062 198.921875 140.382812 207.078125 C 142.882812 218.984375 142.730469 230.613281 139.992188 240.566406 C 136.472656 253.363281 128.617188 263.316406 116.613281 267.101562 L 104.496094 267.101562 L 104.496094 277.25 L 222.320312 277.25 L 222.320312 267.101562 Z M 3.558594 112.164062 C 5.042969 115.871094 7.976562 118.957031 11.964844 120.515625 C 15.953125 122.074219 20.210938 121.804688 23.808594 120.085938 C 22.324219 116.378906 19.390625 113.296875 15.402344 111.734375 C 11.414062 110.171875 7.15625 110.449219 3.558594 112.164062 Z M 0.0429688 162.703125 C 3.796875 164.964844 8.445312 165.785156 13.019531 164.5 C 17.59375 163.25 21.191406 160.167969 23.222656 156.261719 C 19.46875 154 14.820312 153.179688 10.242188 154.472656 C 5.667969 155.71875 2.074219 158.800781 0.0429688 162.703125 Z M 15.953125 190.648438 C 20.328125 190.960938 24.824219 189.554688 28.34375 186.355469 C 31.820312 183.152344 33.621094 178.78125 33.660156 174.410156 C 29.28125 174.101562 24.785156 175.503906 21.269531 178.707031 C 17.789062 181.90625 15.992188 186.277344 15.953125 190.648438 Z M 38.117188 200.871094 C 44.566406 200.71875 50.9375 198.023438 55.550781 192.832031 C 60.164062 187.640625 62.15625 181.046875 61.609375 174.648438 C 55.160156 174.800781 48.789062 177.496094 44.175781 182.683594 C 39.5625 187.875 37.570312 194.472656 38.117188 200.871094 Z M 119.390625 13.425781 C 117.199219 16.273438 116.144531 20.023438 116.808594 23.84375 C 117.433594 27.671875 119.660156 30.871094 122.671875 32.863281 C 124.863281 30.011719 125.917969 26.265625 125.253906 22.441406 C 124.628906 18.617188 122.398438 15.417969 119.390625 13.425781 Z M 142.296875 15.960938 C 138.546875 18.144531 135.652344 21.855469 134.636719 26.417969 C 133.578125 30.988281 134.597656 35.554688 137.019531 39.183594 C 140.773438 37 143.664062 33.289062 144.683594 28.722656 C 145.738281 24.15625 144.722656 19.589844 142.296875 15.960938 Z M 153.59375 38.519531 C 148.941406 41.09375 145.308594 45.503906 143.859375 51.085938 C 142.453125 56.667969 143.511719 62.285156 146.402344 66.773438 C 151.054688 64.199219 154.691406 59.789062 156.136719 54.210938 C 157.542969 48.628906 156.488281 43.007812 153.59375 38.519531 Z M 32.722656 70.25 C 33.074219 74.191406 35.027344 78.015625 38.390625 80.667969 C 41.792969 83.324219 45.933594 84.261719 49.882812 83.632812 C 49.53125 79.691406 47.578125 75.867188 44.175781 73.214844 C 40.777344 70.5625 36.632812 69.625 32.683594 70.25 Z M 66.652344 38.714844 C 66.183594 42.074219 67.003906 45.582031 69.273438 48.433594 C 71.542969 51.28125 74.785156 52.882812 78.1875 53.15625 C 78.65625 49.796875 77.835938 46.285156 75.566406 43.4375 C 73.300781 40.585938 70.054688 38.988281 66.652344 38.714844 Z M 100.9375 23.925781 C 98.984375 28.292969 98.824219 33.445312 100.859375 38.207031 C 102.894531 42.96875 106.722656 46.402344 111.257812 48.042969 C 113.214844 43.671875 113.371094 38.519531 111.335938 33.757812 C 109.304688 28.996094 105.472656 25.5625 100.9375 23.925781 Z M 126.269531 39.730469 C 122.011719 44.414062 119.660156 50.773438 120.210938 57.566406 C 120.757812 64.355469 124.121094 70.25 129.085938 74.191406 C 133.34375 69.507812 135.691406 63.144531 135.144531 56.355469 C 134.597656 49.5625 131.234375 43.671875 126.269531 39.730469 Z M 88.269531 50.347656 C 86.785156 57.097656 88 64.433594 92.222656 70.601562 C 96.441406 76.765625 102.894531 80.550781 109.734375 81.605469 C 111.222656 74.855469 110.007812 67.515625 105.785156 61.351562 C 101.5625 55.1875 95.113281 51.398438 88.269531 50.347656 Z M 57.507812 62.210938 C 57.820312 69.117188 60.867188 75.910156 66.535156 80.789062 C 72.203125 85.664062 79.398438 87.65625 86.277344 86.914062 C 85.964844 80.003906 82.914062 73.214844 77.246094 68.335938 C 71.578125 63.460938 64.386719 61.46875 57.507812 62.210938 Z M 1.839844 137.960938 C 6.101562 142.683594 12.238281 145.6875 19.117188 145.84375 C 25.996094 145.960938 32.253906 143.191406 36.707031 138.625 C 32.449219 133.902344 26.3125 130.894531 19.429688 130.742188 C 12.550781 130.625 6.296875 133.394531 1.839844 137.960938 Z M 24.042969 94.289062 C 24.316406 100.652344 27.132812 106.894531 32.332031 111.382812 C 37.53125 115.871094 44.136719 117.707031 50.472656 117.003906 C 50.195312 110.640625 47.382812 104.398438 42.183594 99.910156 C 36.984375 95.421875 30.375 93.585938 24.042969 94.289062 Z M 53.988281 90.933594 C 54.339844 98.816406 57.820312 106.542969 64.269531 112.085938 C 70.71875 117.628906 78.929688 119.929688 86.785156 119.070312 C 86.433594 111.1875 82.957031 103.460938 76.507812 97.917969 C 70.054688 92.375 61.84375 90.074219 53.988281 90.933594 Z M 29.789062 165.28125 C 36.042969 167.582031 43.199219 167.386719 49.609375 164.1875 C 56.019531 160.984375 60.476562 155.367188 62.394531 149.007812 C 56.140625 146.703125 48.984375 146.898438 42.574219 150.097656 C 36.160156 153.296875 31.703125 158.917969 29.789062 165.28125 Z M 29.789062 165.28125 "/>
            </g>
        </g>
        <g id='primary_textGroup'>
            <path fill="white" d="M-272.28 349.32L-272.28 445.34L-237.85 445.34Q-228.66 445.34-222.35 442.94Q-216.04 440.54-212.20 436.70Q-208.36 432.86-206.64 427.99Q-204.93 423.12-204.93 418.18L-204.93 418.18Q-204.93 410.36-208.29 405.70Q-211.65 401.03-216.31 398.57Q-220.98 396.10-225.92 395.27Q-230.86 394.45-233.87 394.31L-233.87 394.31L-233.87 393.76Q-229.07 393.76-224.82 391.91Q-220.57 390.06-217.34 387.11Q-214.12 384.16-212.20 380.25Q-210.28 376.34-210.28 371.95L-210.28 371.95Q-210.28 368.11-211.93 364.13Q-213.57 360.16-216.93 356.86Q-220.29 353.57-225.57 351.45Q-230.86 349.32-237.99 349.32L-237.99 349.32L-272.28 349.32ZM-239.91 439.31L-259.80 439.31L-259.80 397.33L-244.71 397.33Q-237.99 397.33-233.05 399.11Q-228.11 400.90-224.89 403.92Q-221.66 406.93-220.09 410.91Q-218.51 414.89-218.51 419.28L-218.51 419.28Q-218.51 424.08-220.22 427.78Q-221.94 431.49-224.82 434.09Q-227.70 436.70-231.61 438.00Q-235.52 439.31-239.91 439.31L-239.91 439.31ZM-243.34 391.30L-259.80 391.30L-259.80 355.36L-243.06 355.36Q-237.71 355.36-233.94 356.86Q-230.17 358.37-227.77 360.84Q-225.37 363.31-224.27 366.47Q-223.17 369.62-223.17 372.78L-223.17 372.78Q-223.17 376.75-224.75 380.18Q-226.33 383.61-229.14 386.08Q-231.95 388.55-235.59 389.92Q-239.22 391.30-243.34 391.30L-243.34 391.30Z"/>
            <path fill="white" d="M-112.06 445.34L-174.06 445.34L-174.06 349.32L-161.58 349.32L-161.58 437.80L-112.06 437.80L-112.06 445.34Z"/>
            <path fill="white" d="M-76.85 349.32L-89.33 349.32L-89.33 408.30Q-89.33 413.93-88.23 420.72Q-87.14 427.51-83.02 433.34Q-78.91 439.17-70.81 443.08Q-62.72 446.99-48.73 446.99L-48.73 446.99Q-39.95 446.99-33.16 444.24Q-26.37 441.50-21.77 436.70Q-17.18 431.90-14.84 425.52Q-12.51 419.14-12.51 411.87L-12.51 411.87L-12.51 349.32L-18.55 349.32L-18.55 407.34Q-18.55 410.36-18.69 413.45Q-18.82 416.54-19.51 419.62Q-20.19 422.71-21.64 425.73Q-23.08 428.74-25.82 431.76L-25.82 431.76Q-30.76 437.11-36.93 439.03Q-43.10 440.95-49.82 440.95L-49.82 440.95Q-55.59 440.95-60.04 439.17Q-64.50 437.39-68.48 433.82L-68.48 433.82Q-71.64 431.08-73.28 428.33Q-74.93 425.59-75.75 422.91Q-76.57 420.24-76.71 417.50Q-76.85 414.75-76.85 412.01L-76.85 412.01L-76.85 349.32Z"/>
            <path fill="white" d="M84.38 349.32L22.38 349.32L22.38 445.34L84.38 445.34L84.38 437.80L34.86 437.80L34.86 397.61L77.38 397.61L77.38 391.30L34.86 391.30L34.86 356.86L84.38 356.86L84.38 349.32Z"/>
            <path fill="white" d="M112.87 349.32L100.25 349.32L134.27 445.34L142.50 445.34L168.70 370.31L169.39 370.31L194.76 445.34L202.86 445.34L236.87 349.32L230.56 349.32L202.17 429.43L201.62 429.43L174.87 349.32L168.97 349.32L141.68 429.02L141.13 429.02L112.87 349.32Z"/>
            <path fill="white" d="M259.85 417.08L307.17 417.08L320.34 445.34L333.65 445.34L288.93 349.32L282.07 349.32L241.47 445.34L247.78 445.34L259.85 417.08ZM282.76 364.68L304.29 410.91L262.46 410.91L282.21 364.68L282.76 364.68Z"/>
            <path fill="white" d="M368.08 445.34L380.56 445.34L380.56 356.86L417.32 356.86L417.32 349.32L331.32 349.32L331.32 356.86L368.08 356.86L368.08 445.34Z"/>
            <path fill="white" d="M506.26 349.32L444.25 349.32L444.25 445.34L506.26 445.34L506.26 437.80L456.74 437.80L456.74 397.61L499.26 397.61L499.26 391.30L456.74 391.30L456.74 356.86L506.26 356.86L506.26 349.32Z"/>
            <path fill="white" d="M565.61 349.32L534.47 349.32L534.47 445.34L546.95 445.34L546.95 402.96L552.99 402.96Q556.83 402.96 559.37 403.64Q561.91 404.33 563.96 405.97Q566.02 407.62 567.81 410.23Q569.59 412.83 572.06 416.67L572.06 416.67L582.89 432.72Q584.95 435.88 586.94 438.48Q588.93 441.09 591.26 442.94Q593.59 444.79 596.54 445.89Q599.49 446.99 603.61 446.99L603.61 446.99Q606.63 446.99 608.55 446.71Q610.47 446.44 612.39 445.34L612.39 445.34L612.39 440.27Q611.70 440.40 611.02 440.47Q610.33 440.54 609.64 440.54L609.64 440.54Q606.76 440.54 604.57 439.72Q602.37 438.89 600.45 437.32Q598.53 435.74 596.75 433.48Q594.97 431.21 593.05 428.33L593.05 428.33Q587.28 419.96 584.13 414.96Q580.97 409.95 579.12 407.21Q577.27 404.46 576.10 403.23Q574.94 401.99 573.29 401.17L573.29 401.17L571.92 400.49L571.92 399.94Q578.50 399.53 583.24 397.06Q587.97 394.59 590.99 390.88Q594.01 387.18 595.38 382.86Q596.75 378.54 596.75 374.42L596.75 374.42Q596.75 370.72 595.31 366.33Q593.87 361.94 590.37 358.17Q586.87 354.40 580.84 351.86Q574.80 349.32 565.61 349.32L565.61 349.32ZM546.95 396.78L546.95 355.36L560.81 355.36Q566.02 355.36 570.21 356.86Q574.39 358.37 577.41 361.05Q580.43 363.72 582.00 367.43Q583.58 371.13 583.58 375.52L583.58 375.52Q583.58 379.22 582.14 383.00Q580.70 386.77 577.82 389.85Q574.94 392.94 570.75 394.86Q566.57 396.78 561.08 396.78L561.08 396.78L546.95 396.78Z"/>
        </g>
        <g id='secondary_textGroup'></g>
    </g>
</svg>