<?xml version="1.0" encoding="utf-8"?>
<!-- Generator: Adobe Illustrator 25.3.1, SVG Export Plug-In . SVG Version: 6.00 Build 0)  -->
<svg version="1.2" baseProfile="tiny" id="Layer_1" xmlns="http://www.w3.org/2000/svg" xmlns:xlink="http://www.w3.org/1999/xlink"
	 x="0px" y="0px" viewBox="0 0 300 300" overflow="visible" xml:space="preserve">
<g>
	<path fill="#F1A732" d="M-303.43,317.45c-31-0.32-64.01-13.24-91.9-38.87c-25.38-23.32-40.94-52.16-45.77-86.26
		c-5.74-40.52,3.96-77.44,29.07-109.82c25.23-32.52,58.55-51.26,99.51-56.27c4.9-0.6,9.8-0.71,14.71-0.78
		c7.28-0.11,12.09,4.11,12.27,10.62c0.17,6.39-4.63,11.16-11.75,11.31c-15.22,0.31-29.97,2.94-44.17,8.52
		c-20.6,8.1-37.85,20.81-51.73,38c-13.03,16.13-21.47,34.46-25.29,54.85c-9.41,50.23,13.41,101.39,56.98,128.14
		c24.31,14.93,50.72,21.16,78.9,17.66c40.48-5.03,71.49-25.5,92.72-60.35c10.65-17.49,16.3-36.63,17.03-57.17
		c0.07-2.1,0.28-4.2,0.49-6.3c0.64-6.53,5.05-10.45,11.45-10.22c5.92,0.21,10.39,4.78,10.39,11.05c0,13.88-1.82,27.54-5.91,40.81
		c-10.99,35.65-32.2,63.52-63.9,83.29C-243.63,310.21-269.05,317.42-303.43,317.45z"/>
	<path fill="#F1A732" d="M-306.77,223.83c-3.65,0.18-6.35-1.65-8.62-4.11c-18.18-19.69-36.35-39.39-54.46-59.15
		c-4.62-5.04-4.37-11.7,0.32-15.97c4.53-4.12,11.04-3.77,15.67,1.2c15.07,16.19,30.1,32.43,44.97,48.8
		c2.15,2.36,3.06,1.91,5.01-0.03c42.72-42.69,85.5-85.32,128.28-127.96c4.83-4.81,9.38-5.69,14.47-2.82
		c5.37,3.02,7.09,9.61,3.77,14.82c-0.87,1.37-2.01,2.59-3.16,3.74c-45.91,45.8-91.84,91.57-137.74,137.38
		C-300.68,222.12-303.25,223.96-306.77,223.83z"/>
</g>
<path fill="#F1A732" d="M150,20c34.72,0,67.37,13.52,91.92,38.08C266.48,82.63,280,115.28,280,150s-13.52,67.37-38.08,91.92
	C217.37,266.48,184.72,280,150,280s-67.37-13.52-91.92-38.08C33.52,217.37,20,184.72,20,150s13.52-67.37,38.08-91.92
	C82.63,33.52,115.28,20,150,20 M150,0C67.16,0,0,67.16,0,150s67.16,150,150,150s150-67.16,150-150S232.84,0,150,0L150,0z"/>
<line fill="none" stroke="#F1A732" stroke-width="20" stroke-linecap="round" stroke-miterlimit="10" x1="150" y1="84.81" x2="150" y2="177"/>
<circle fill="#F1A732" cx="150" cy="219.68" r="11.68"/>
</svg>
