<?xml version="1.0" encoding="utf-8"?>
<!-- Generator: Adobe Illustrator 25.3.1, SVG Export Plug-In . SVG Version: 6.00 Build 0)  -->
<svg version="1.2" baseProfile="tiny" id="Layer_1" xmlns="http://www.w3.org/2000/svg" xmlns:xlink="http://www.w3.org/1999/xlink"
	 x="0px" y="0px" viewBox="0 0 300 300" overflow="visible" xml:space="preserve">
<g>
	<path fill="#F1A732" d="M-303.43,317.45c-31-0.32-64.01-13.24-91.9-38.87c-25.38-23.32-40.94-52.16-45.77-86.26
		c-5.74-40.52,3.96-77.44,29.07-109.82c25.23-32.52,58.55-51.26,99.51-56.27c4.9-0.6,9.8-0.71,14.71-0.78
		c7.28-0.11,12.09,4.11,12.27,10.62c0.17,6.39-4.63,11.16-11.75,11.31c-15.22,0.31-29.97,2.94-44.17,8.52
		c-20.6,8.1-37.85,20.81-51.73,38c-13.03,16.13-21.47,34.46-25.29,54.85c-9.41,50.23,13.41,101.39,56.98,128.14
		c24.31,14.93,50.72,21.16,78.9,17.66c40.48-5.03,71.49-25.5,92.72-60.35c10.65-17.49,16.3-36.63,17.03-57.17
		c0.07-2.1,0.28-4.2,0.49-6.3c0.64-6.53,5.05-10.45,11.45-10.22c5.92,0.21,10.39,4.78,10.39,11.05c0,13.88-1.82,27.54-5.91,40.81
		c-10.99,35.65-32.2,63.52-63.9,83.29C-243.63,310.21-269.05,317.42-303.43,317.45z"/>
	<path fill="#F1A732" d="M-306.77,223.83c-3.65,0.18-6.35-1.65-8.62-4.11c-18.18-19.69-36.35-39.39-54.46-59.15
		c-4.62-5.04-4.37-11.7,0.32-15.97c4.53-4.12,11.04-3.77,15.67,1.2c15.07,16.19,30.1,32.43,44.97,48.8
		c2.15,2.36,3.06,1.91,5.01-0.03c42.72-42.69,85.5-85.32,128.28-127.96c4.83-4.81,9.38-5.69,14.47-2.82
		c5.37,3.02,7.09,9.61,3.77,14.82c-0.87,1.37-2.01,2.59-3.16,3.74c-45.91,45.8-91.84,91.57-137.74,137.38
		C-300.68,222.12-303.25,223.96-306.77,223.83z"/>
</g>
<path fill="#F1A732" d="M-195.19-336.84c34.72,0,67.37,13.52,91.92,38.08c24.55,24.55,38.08,57.2,38.08,91.92
	s-13.52,67.37-38.08,91.92c-24.55,24.55-57.2,38.08-91.92,38.08s-67.37-13.52-91.92-38.08c-24.55-24.55-38.08-57.2-38.08-91.92
	s13.52-67.37,38.08-91.92C-262.56-323.32-229.92-336.84-195.19-336.84 M-195.19-356.84c-82.84,0-150,67.16-150,150
	s67.16,150,150,150s150-67.16,150-150S-112.35-356.84-195.19-356.84L-195.19-356.84z"/>
<line fill="none" stroke="#F1A732" stroke-width="20" stroke-linecap="round" stroke-miterlimit="10" x1="-195.19" y1="-272.03" x2="-195.19" y2="-179.84"/>
<circle fill="#F1A732" cx="-195.19" cy="-137.16" r="11.68"/>
<g>
	<g>
		<path d="M144.18,298.5c-0.39-0.07-0.69-0.13-0.99-0.2c-0.64-0.14-1.25-0.27-1.87-0.34c-15.53-1.84-29.44-7.78-41.33-17.66
			c-13.29-11.03-22.67-26.45-26.42-43.41c-3.75-16.95-1.72-34.74,5.71-50.08c0.28-0.57,0.51-1.18,0.79-1.88
			c0.07-0.17,0.14-0.35,0.21-0.53c-1.93,0-3.81,0.01-5.68,0.02c-2.04,0.01-4.04,0.02-6.03,0.02c-2.96,0-5.4-0.02-7.66-0.07
			c-1.64-0.03-3.28-0.05-4.93-0.06c-5.23-0.04-10.64-0.08-15.87-0.86c-20.05-3-36.39-20.62-38.02-40.98
			c-1.74-21.74,10.67-41.58,30.18-48.25c2.43-0.83,2.78-1.73,2.63-4.16c-1.06-17.09,11.81-32.42,28.68-34.19
			c1.07-0.11,2.2-0.17,3.46-0.17c1.91,0,3.8,0.12,5.79,0.25c1.32,0.09,2.68,0.17,4.04,0.22c0.11-0.36,0.27-0.88,0.42-1.39
			c7.49-25.14,23.87-41.99,48.68-50.06c3.26-1.06,6.69-1.69,10.02-2.3c1.55-0.29,3.1-0.57,4.63-0.9l0.05-0.01h12.87l0.09,0.03
			c0.15,0.06,0.29,0.12,0.44,0.19c0.27,0.12,0.52,0.24,0.76,0.28c31.74,4.76,52.65,22.75,62.14,53.49c0.14,0.45,0.34,0.89,0.54,1.32
			c0.04,0.1,0.09,0.19,0.13,0.29l0.29-0.02c0.37-0.03,0.68-0.05,0.98-0.1c0.42-0.06,0.83-0.15,1.24-0.23l0.44-0.09
			c4.68-0.92,9.3-1.39,13.75-1.39c8.85,0,17.34,1.85,25.25,5.5c16.76,7.74,29.2,21.28,35.03,38.12c5.73,16.57,4.38,34.52-3.8,50.55
			c-10.83,21.2-28.64,32.84-52.96,34.6c-2.01,0.15-4.15,0.21-6.74,0.21c-1.91,0-3.81-0.04-5.72-0.07c-1.74-0.03-3.48-0.07-5.21-0.07
			c-0.01,0.08-0.02,0.16-0.02,0.22c-0.01,0.12-0.03,0.2-0.02,0.25c0.4,0.96,0.77,1.79,1.14,2.56c6.67,14.04,8.88,28.61,6.59,43.32
			c-4.75,30.44-21.62,51.55-50.13,62.77c-4.76,1.87-9.93,2.86-14.93,3.82c-2.28,0.44-4.64,0.89-6.93,1.42l-0.06,0.01H144.18z
			 M149.11,158.56c-33.72,0.47-60.85,27.99-60.47,61.36c0.38,33.5,27.61,60.76,60.7,60.76l0.75,0c16.58-0.21,32.03-6.8,43.49-18.56
			c11.31-11.61,17.42-26.94,17.2-43.16c-0.46-33.3-27.73-60.4-60.81-60.4C149.68,158.56,149.4,158.56,149.11,158.56z M66.99,72.89
			c-7.01,0-13.02,4.58-14.95,11.38c-0.99,3.51-0.69,6.98,0.95,10.92c1.43,3.43,1.5,6.47,0.22,8.79c-1.29,2.32-3.9,3.86-7.55,4.46
			c-0.31,0.05-0.61,0.11-0.91,0.17c-0.46,0.09-0.92,0.17-1.38,0.24c-14.28,1.92-25.47,15.74-24.42,30.18
			c1.16,16.02,13.42,27.31,29.81,27.45c5.42,0.05,11.15,0.07,17.04,0.07c7.7,0,15.93-0.04,25.15-0.12c1.25-0.01,2.71-0.83,3.67-1.59
			c1.32-1.06,2.59-2.23,3.82-3.36c1.56-1.44,3.18-2.92,4.91-4.2c14.06-10.42,29.7-15.7,46.47-15.7c3.33,0,6.77,0.21,10.2,0.62
			c17.64,2.13,33.1,9.8,45.96,22.8c0.78,0.79,2.29,1.38,3.67,1.43c1.79,0.08,3.74,0.11,6.16,0.11c1.28,0,2.56-0.01,3.84-0.02
			c1.12-0.01,2.23-0.02,3.35-0.02v-0.33h0.5c1.56,0,3.12,0.01,4.68,0.03c1.56,0.01,3.12,0.02,4.67,0.02c2.65,0,4.8-0.04,6.79-0.12
			c2.01-0.08,4.07-0.65,6.06-1.2l0.88-0.24c20.12-5.48,34.76-25.19,34.04-45.85c-0.77-22.12-16.11-40.5-37.31-44.7
			c-3.26-0.65-6.5-0.97-9.63-0.97c-6.07,0-11.96,1.23-17.51,3.65c-1.97,0.86-3.98,1.31-5.8,1.31c-5.37,0-8.77-3.69-9.32-10.13
			c-0.89-10.43-4.94-19.91-12.4-28.99c-10.21-12.43-25.54-19.56-42.07-19.56c-18.57,0-35.62,8.95-45.62,23.95
			c-5.44,8.17-8.54,17.18-9.47,27.56c-0.41,4.64-3.61,7.76-7.96,7.76c-1.18,0-2.38-0.24-3.58-0.71c-1.31-0.51-2.61-1.23-3.88-2.14
			C73.37,73.91,70.23,72.89,66.99,72.89z"/>
		<path d="M153.43,2c0.43,0.17,0.86,0.43,1.31,0.5c31.74,4.76,52.28,22.51,61.74,53.15c0.22,0.7,0.56,1.36,0.83,1.99
			c0.71-0.06,1.19-0.08,1.67-0.15c0.57-0.08,1.13-0.21,1.7-0.32c4.59-0.9,9.15-1.38,13.65-1.38c8.56,0,16.94,1.72,25.04,5.45
			c33.99,15.69,47.99,54.7,30.99,87.99c-10.79,21.13-28.75,32.61-52.55,34.33c-2.23,0.16-4.46,0.21-6.7,0.21
			c-3.8,0-7.61-0.15-11.39-0.15c-0.05,0.75-0.13,0.96-0.06,1.12c0.37,0.89,0.75,1.77,1.16,2.64c6.5,13.69,8.88,28.1,6.55,43.02
			c-4.71,30.19-21.4,51.2-49.82,62.38c-6.88,2.71-14.5,3.53-21.79,5.22c-3.85,0-7.71,0-11.56,0c-0.93-0.18-1.86-0.43-2.8-0.54
			c-15.41-1.82-29.14-7.64-41.07-17.55c-27.31-22.68-35.84-61.39-20.58-92.9c0.43-0.89,0.76-1.84,1.28-3.13
			c-4.3,0-8.41,0.04-12.45,0.04c-2.57,0-5.11-0.02-7.65-0.07c-6.92-0.14-13.93,0.1-20.73-0.91c-19.99-2.99-36-20.56-37.6-40.53
			c-1.71-21.45,10.45-41.11,29.84-47.73c2.75-0.94,3.12-2.11,2.96-4.67C34.33,73.14,46.86,58.1,63.61,56.35
			c1.13-0.12,2.27-0.16,3.41-0.16c3.31,0,6.7,0.38,10.19,0.49c0.09-0.31,0.32-1.03,0.54-1.76c7.45-25.01,23.56-41.66,48.36-49.72
			c4.71-1.53,9.73-2.15,14.6-3.19C144.95,2,149.19,2,153.43,2 M83.53,78.18c-1.09,0-2.23-0.22-3.39-0.67
			c-1.33-0.52-2.61-1.25-3.77-2.08c-2.91-2.07-6.17-3.04-9.37-3.04c-6.83,0-13.35,4.39-15.43,11.75c-1.09,3.87-0.58,7.54,0.97,11.25
			c2.8,6.73,0.14,11.39-6.95,12.56c-0.76,0.12-1.51,0.3-2.28,0.4c-14.48,1.94-25.91,16.07-24.85,30.71
			c1.18,16.31,13.53,27.77,30.3,27.91c5.68,0.05,11.36,0.07,17.04,0.07c8.38,0,16.77-0.05,25.15-0.12c1.34-0.01,2.88-0.82,3.97-1.7
			c3-2.41,5.64-5.27,8.72-7.55c13.99-10.36,29.43-15.6,46.17-15.6c3.33,0,6.71,0.21,10.14,0.62c17.81,2.15,33.01,9.87,45.66,22.65
			c0.94,0.95,2.64,1.52,4.01,1.58c2.06,0.09,4.12,0.11,6.19,0.11c2.56,0,5.12-0.04,7.68-0.04c0-0.11,0-0.22,0-0.33
			c3.12,0,6.23,0.05,9.35,0.05c2.28,0,4.55-0.03,6.82-0.12c2.37-0.1,4.73-0.83,7.04-1.46c20.33-5.54,35.14-25.5,34.41-46.35
			c-0.77-22.28-16.39-40.95-37.72-45.18c-3.27-0.65-6.52-0.98-9.73-0.98c-6.05,0-11.97,1.19-17.71,3.69
			c-1.87,0.82-3.79,1.27-5.6,1.27c-4.46,0-8.23-2.76-8.82-9.67c-0.94-11.07-5.48-20.71-12.51-29.26
			C178.14,25.4,162.34,18.9,146.57,18.9c-17.7,0-35.37,8.18-46.03,24.17c-5.64,8.46-8.65,17.72-9.55,27.79
			C90.59,75.37,87.44,78.18,83.53,78.18 M149.34,281.18c0.25,0,0.51,0,0.76,0c34.34-0.43,61.64-28.2,61.18-62.23
			c-0.46-33.87-27.77-60.89-61.31-60.89c-0.29,0-0.58,0-0.87,0.01c-34.04,0.47-61.35,28.18-60.96,61.86
			C88.53,253.79,115.98,281.18,149.34,281.18 M153.62,1h-0.19h-12.72h-0.11l-0.1,0.02c-1.53,0.33-3.1,0.61-4.62,0.89
			c-3.34,0.62-6.8,1.25-10.09,2.32c-24.98,8.12-41.46,25.08-49.01,50.39c-0.11,0.36-0.21,0.71-0.31,1.02
			c-1.22-0.05-2.45-0.13-3.64-0.21c-1.92-0.12-3.9-0.25-5.83-0.25c-1.28,0-2.43,0.06-3.51,0.17c-8.35,0.87-15.97,4.96-21.46,11.51
			c-5.47,6.54-8.2,14.78-7.67,23.21c0.14,2.25-0.07,2.9-2.29,3.66c-19.72,6.74-32.27,26.79-30.51,48.76
			c1.65,20.59,18.17,38.41,38.45,41.44c5.26,0.79,10.69,0.83,15.94,0.87c1.64,0.01,3.28,0.02,4.92,0.06
			c2.27,0.05,4.71,0.07,7.68,0.07c1.99,0,4-0.01,6.03-0.02c1.62-0.01,3.27-0.02,4.94-0.02c-0.25,0.63-0.46,1.18-0.71,1.69
			c-7.48,15.45-9.52,33.35-5.75,50.41c3.78,17.07,13.22,32.59,26.59,43.69c11.97,9.94,25.97,15.92,41.59,17.77
			c0.59,0.07,1.19,0.2,1.82,0.34c0.3,0.07,0.6,0.13,0.91,0.19l0.1,0.02h0.1h11.56h0.11l0.11-0.03c2.27-0.53,4.63-0.98,6.91-1.42
			c5.02-0.96,10.21-1.96,15.01-3.85c28.69-11.28,45.66-32.53,50.44-63.16c2.31-14.81,0.08-29.48-6.63-43.61
			c-0.33-0.69-0.66-1.44-1.03-2.32c1.57,0.01,3.15,0.04,4.69,0.07c1.88,0.04,3.82,0.07,5.73,0.07c2.6,0,4.75-0.07,6.77-0.21
			c24.5-1.77,42.46-13.51,53.37-34.87c8.25-16.15,9.61-34.24,3.83-50.94c-5.87-16.98-18.41-30.62-35.29-38.41
			c-7.97-3.68-16.54-5.55-25.46-5.55c-4.48,0-9.13,0.47-13.84,1.4l-0.44,0.09c-0.42,0.09-0.82,0.17-1.21,0.23
			c-0.27,0.04-0.55,0.06-0.89,0.09c-0.19-0.41-0.37-0.83-0.5-1.23c-9.55-30.94-30.6-49.05-62.54-53.84
			c-0.17-0.02-0.39-0.13-0.62-0.24c-0.15-0.07-0.31-0.14-0.47-0.2L153.62,1L153.62,1z M83.53,79.18c4.55,0,8.03-3.38,8.46-8.22
			c0.92-10.3,3.99-19.23,9.38-27.33c9.91-14.86,26.8-23.73,45.2-23.73c16.37,0,31.57,7.06,41.68,19.37
			c7.39,8.99,11.41,18.38,12.29,28.71c0.57,6.73,4.15,10.59,9.82,10.59c1.9,0,3.97-0.47,6-1.35c5.49-2.39,11.32-3.61,17.32-3.61
			c3.1,0,6.31,0.32,9.53,0.96c20.97,4.16,36.15,22.35,36.91,44.23c0.71,20.43-13.77,39.93-33.68,45.35l-0.87,0.24
			c-1.96,0.54-4,1.11-5.95,1.19c-1.98,0.08-4.14,0.12-6.78,0.12c-1.55,0-3.11-0.01-4.67-0.02c-1.56-0.01-3.12-0.02-4.68-0.02h-1
			v0.33c-0.95,0-1.9,0.01-2.85,0.02c-1.28,0.01-2.56,0.02-3.83,0.02c-2.41,0-4.37-0.03-6.15-0.11c-1.25-0.05-2.65-0.59-3.34-1.29
			c-12.94-13.08-28.5-20.8-46.25-22.94c-3.45-0.42-6.9-0.63-10.25-0.63c-16.89,0-32.62,5.31-46.77,15.8
			c-1.76,1.3-3.38,2.79-4.95,4.24c-1.23,1.13-2.5,2.29-3.8,3.34c-1.13,0.91-2.42,1.48-3.36,1.48c-9.2,0.08-17.43,0.12-25.14,0.12
			c-5.89,0-11.62-0.02-17.03-0.07c-16.12-0.14-28.17-11.23-29.31-26.98c-1.03-14.18,9.96-27.76,23.99-29.65
			c0.48-0.06,0.95-0.15,1.41-0.24c0.3-0.06,0.6-0.11,0.9-0.16c3.81-0.62,6.54-2.25,7.9-4.71c1.36-2.46,1.3-5.65-0.19-9.22
			c-1.59-3.83-1.89-7.19-0.93-10.59c1.87-6.59,7.68-11.02,14.47-11.02c3.13,0,6.17,0.99,8.79,2.85c1.3,0.93,2.64,1.67,3.99,2.19
			C81.02,78.93,82.28,79.18,83.53,79.18L83.53,79.18z M149.34,280.18c-32.81,0-59.82-27.03-60.2-60.26
			c-0.38-33.09,26.53-60.39,59.98-60.85c0.29,0,0.57-0.01,0.85-0.01c32.8,0,59.86,26.87,60.31,59.9
			c0.22,16.09-5.84,31.29-17.05,42.8c-11.37,11.67-26.69,18.21-43.13,18.41C149.84,280.18,149.59,280.18,149.34,280.18
			L149.34,280.18z"/>
	</g>
	<path d="M149.32,208.54c5.86-5.88,11.09-11.12,16.31-16.37c2.5-2.52,5.4-3.71,8.9-2.45c5.8,2.09,7.42,8.8,3.09,13.37
		c-4.5,4.76-9.21,9.31-13.87,13.93c-0.75,0.74-1.66,1.32-3.19,2.51c3.4,3.15,6.37,5.83,9.26,8.6c2.44,2.33,4.81,4.73,7.16,7.15
		c3.82,3.92,4.1,8.65,0.77,12.05c-3.06,3.13-8.61,2.97-12.26-0.57c-4.98-4.82-9.83-9.79-14.74-14.69c-0.27-0.27-0.58-0.48-1-0.82
		c-5.15,5.1-10.15,10.28-15.44,15.15c-1.58,1.46-3.89,2.5-6.02,2.91c-3.63,0.7-6.44-0.96-7.96-3.91c-1.61-3.12-1.29-6.34,1.3-9.06
		c4.66-4.88,9.45-9.62,14.24-14.37c0.74-0.73,1.77-1.18,2.91-1.92c-5.93-5.92-11.17-11.15-16.41-16.37
		c-2.24-2.24-3.57-4.8-2.75-8.05c1.63-6.46,8.88-8.52,13.85-3.81c4.75,4.51,9.32,9.21,13.91,13.88
		C148.12,206.45,148.59,207.45,149.32,208.54z"/>
</g>
</svg>
