<?xml version="1.0" encoding="utf-8"?>
<!-- Generator: Adobe Illustrator 25.3.1, SVG Export Plug-In . SVG Version: 6.00 Build 0)  -->
<svg version="1.2" baseProfile="tiny" id="Layer_1" xmlns="http://www.w3.org/2000/svg" xmlns:xlink="http://www.w3.org/1999/xlink"
	 x="0px" y="0px" viewBox="0 0 512 512" overflow="visible" xml:space="preserve">
<g>
	<path fill="#1261A0" d="M400.99,313.15c-2.03,0.51-3.54,2.35-3.54,4.54v128.24h76.02V317.69c0-2.19-1.51-4.03-3.54-4.54"/>
	<path fill="#1261A0" d="M408.05,445.94h-40.67c-2.84,0-4.08,3.6-1.83,5.34l68.08,52.83c1.08,0.84,2.58,0.84,3.66,0l68.08-52.83
		c2.25-1.74,1.01-5.34-1.83-5.34h-40.54"/>
</g>
<g>
	<path fill="none" stroke="#1261A0" stroke-width="20" stroke-linecap="round" stroke-miterlimit="10" d="M446.27,283.15V86.65
		c0,7.93-6.58,14.36-14.69,14.36h-57.13c-8.11,0-14.69-6.43-14.69-14.36V30.79c0-7.93,6.58-14.36,14.69-14.36h-261.4
		c-8.11,0-14.69,6.43-14.69,14.36v83.87"/>
	<path fill="none" stroke="#1261A0" stroke-width="20" stroke-linecap="round" stroke-miterlimit="10" d="M99.35,318.64v147.85
		c0,7.93,6.58,14.36,14.69,14.36H341"/>
	
		<line fill="none" stroke="#1261A0" stroke-width="20" stroke-linecap="round" stroke-miterlimit="10" x1="374.45" y1="16.43" x2="446.27" y2="86.65"/>
</g>
<path fill="#1261A0" d="M325.98,296.3H19.23c-7.6,0-13.76-6.16-13.76-13.76V149.29c0-7.6,6.16-13.76,13.76-13.76h306.75
	c7.6,0,13.76,6.16,13.76,13.76v133.25C339.74,290.14,333.58,296.3,325.98,296.3z"/>
<path fill="#F2F2F2" d="M89.74,171.55c5.94,0,11.09,0.7,15.44,2.09c4.35,1.39,7.93,3.34,10.76,5.84c2.83,2.5,4.93,5.49,6.3,8.98
	c1.37,3.49,2.06,7.3,2.06,11.44c0,4.31-0.72,8.25-2.15,11.84c-1.44,3.59-3.59,6.67-6.46,9.26c-2.87,2.58-6.47,4.59-10.79,6.03
	c-4.33,1.44-9.38,2.15-15.16,2.15H77.38v31.3H60.83v-88.93H89.74z M89.74,216.26c3.03,0,5.68-0.38,7.93-1.14
	c2.25-0.76,4.13-1.84,5.63-3.26c1.5-1.41,2.61-3.14,3.35-5.17c0.74-2.03,1.11-4.29,1.11-6.8c0-2.38-0.37-4.53-1.11-6.46
	c-0.74-1.93-1.85-3.57-3.32-4.92s-3.34-2.39-5.6-3.11c-2.25-0.72-4.92-1.08-7.99-1.08H77.38v31.92H89.74z M215.94,216.01
	c0,6.52-1.09,12.51-3.26,17.96c-2.17,5.45-5.23,10.15-9.16,14.08s-8.67,6.99-14.21,9.16c-5.53,2.17-11.68,3.26-18.45,3.26h-33.89
	v-88.93h33.89c6.77,0,12.92,1.1,18.45,3.29c5.54,2.19,10.27,5.25,14.21,9.16c3.94,3.92,6.99,8.6,9.16,14.05
	C214.85,203.51,215.94,209.49,215.94,216.01z M198.96,216.01c0-4.88-0.65-9.26-1.94-13.13s-3.16-7.15-5.6-9.84
	c-2.44-2.69-5.39-4.75-8.86-6.18c-3.47-1.43-7.37-2.15-11.72-2.15h-17.28v62.61h17.28c4.35,0,8.25-0.72,11.72-2.15
	c3.46-1.43,6.42-3.5,8.86-6.18c2.44-2.69,4.3-5.97,5.6-9.84S198.96,220.89,198.96,216.01z M247.12,184.71v26.32h33.33v13.22h-33.33
	v36.22h-16.6v-88.93h56.09v13.16H247.12z"/>
</svg>
