<?xml version="1.0" encoding="utf-8"?>
<!-- Generator: Adobe Illustrator 25.3.1, SVG Export Plug-In . SVG Version: 6.00 Build 0)  -->
<svg version="1.2" baseProfile="tiny" id="Layer_1" xmlns="http://www.w3.org/2000/svg" xmlns:xlink="http://www.w3.org/1999/xlink"
	 x="0px" y="0px" viewBox="0 0 512 512" overflow="visible" xml:space="preserve">
<g>
	<path fill="#1261A0" d="M400.34,313.26c-2.03,0.51-3.54,2.35-3.54,4.54v128.24h76.02V317.8c0-2.19-1.51-4.03-3.54-4.54"/>
	<path fill="#1261A0" d="M407.4,446.04h-40.67c-2.84,0-4.08,3.6-1.83,5.34l68.08,52.83c1.08,0.84,2.58,0.84,3.66,0l68.08-52.83
		c2.25-1.74,1.01-5.34-1.83-5.34h-40.54"/>
</g>
<g>
	<path fill="none" stroke="#1261A0" stroke-width="20" stroke-linecap="round" stroke-miterlimit="10" d="M445.62,283.26V86.75
		c0,7.93-6.58,14.36-14.69,14.36h-57.13c-8.11,0-14.69-6.43-14.69-14.36V30.89c0-7.93,6.58-14.36,14.69-14.36h-261.4
		c-8.11,0-14.69,6.43-14.69,14.36v83.87"/>
	<path fill="none" stroke="#1261A0" stroke-width="20" stroke-linecap="round" stroke-miterlimit="10" d="M98.7,318.74v147.85
		c0,7.93,6.58,14.36,14.69,14.36h226.95"/>
	<path fill="none" stroke="#1261A0" stroke-width="15" stroke-miterlimit="10" d="M98.7,309.15"/>
	<path fill="none" stroke="#1261A0" stroke-width="15" stroke-miterlimit="10" d="M97.7,119.77"/>
	
		<line fill="none" stroke="#1261A0" stroke-width="20" stroke-linecap="round" stroke-miterlimit="10" x1="373.79" y1="16.53" x2="445.62" y2="86.75"/>
</g>
<path fill="#1261A0" d="M18.58,135.63h306.75c7.6,0,13.76,6.16,13.76,13.76v133.25c0,7.6-6.16,13.76-13.76,13.76H18.58"/>
<path fill="#F2F2F2" d="M143.7,260.58h-16.48c-1.15,0-2.06-0.29-2.74-0.86c-0.68-0.57-1.22-1.23-1.63-1.97l-20.6-34.13
	c-0.33,1.03-0.72,1.91-1.17,2.64l-19.74,31.49c-0.49,0.7-1.06,1.34-1.69,1.94c-0.64,0.59-1.47,0.89-2.49,0.89H61.72l29.52-45.76
	l-28.35-43.17h16.48c1.15,0,1.98,0.15,2.49,0.46c0.51,0.31,0.99,0.81,1.45,1.51l20.23,32.59c0.41-1.02,0.9-2.05,1.48-3.07
	l18.57-29.21c0.45-0.78,0.94-1.35,1.48-1.72s1.21-0.55,2.03-0.55h15.8l-28.6,42.5L143.7,260.58z M206,246.93v13.65h-52.09v-88.93
	h16.54v75.28H206z M265.16,187.83c-0.49,0.86-1.01,1.49-1.57,1.88c-0.55,0.39-1.24,0.58-2.06,0.58c-0.86,0-1.79-0.32-2.8-0.95
	c-1-0.64-2.2-1.34-3.6-2.12c-1.39-0.78-3.02-1.49-4.89-2.12c-1.87-0.64-4.07-0.95-6.61-0.95c-2.3,0-4.3,0.28-6.03,0.83
	c-1.72,0.55-3.17,1.32-4.34,2.31c-1.17,0.98-2.04,2.16-2.61,3.54c-0.57,1.37-0.86,2.88-0.86,4.52c0,2.09,0.58,3.83,1.75,5.23
	c1.17,1.39,2.71,2.58,4.64,3.57c1.93,0.98,4.12,1.87,6.58,2.64c2.46,0.78,4.98,1.61,7.56,2.49c2.58,0.88,5.1,1.91,7.56,3.08
	s4.65,2.64,6.58,4.43c1.93,1.78,3.47,3.97,4.64,6.55s1.75,5.72,1.75,9.41c0,4.02-0.69,7.78-2.06,11.29
	c-1.38,3.51-3.38,6.56-6.03,9.16c-2.65,2.6-5.87,4.65-9.69,6.15c-3.81,1.5-8.18,2.24-13.1,2.24c-2.83,0-5.62-0.28-8.36-0.83
	c-2.75-0.55-5.38-1.34-7.9-2.37c-2.52-1.02-4.89-2.25-7.1-3.69c-2.21-1.44-4.18-3.03-5.9-4.8l4.86-7.93
	c0.41-0.57,0.94-1.06,1.6-1.45c0.66-0.39,1.35-0.58,2.09-0.58c1.02,0,2.13,0.42,3.32,1.26c1.19,0.84,2.6,1.77,4.24,2.8
	c1.64,1.03,3.56,1.96,5.75,2.8c2.19,0.84,4.83,1.26,7.9,1.26c4.71,0,8.36-1.12,10.95-3.35c2.58-2.23,3.88-5.44,3.88-9.62
	c0-2.34-0.58-4.24-1.75-5.72c-1.17-1.48-2.72-2.72-4.64-3.72c-1.93-1-4.12-1.85-6.58-2.55c-2.46-0.7-4.96-1.45-7.5-2.28
	c-2.54-0.82-5.04-1.8-7.5-2.95c-2.46-1.15-4.65-2.64-6.58-4.49c-1.93-1.85-3.47-4.15-4.64-6.92c-1.17-2.77-1.75-6.18-1.75-10.24
	c0-3.24,0.65-6.4,1.94-9.47c1.29-3.08,3.17-5.8,5.63-8.18c2.46-2.38,5.49-4.28,9.1-5.72c3.61-1.43,7.75-2.15,12.42-2.15
	c5.25,0,10.09,0.82,14.51,2.46c4.43,1.64,8.2,3.94,11.32,6.89L265.16,187.83z"/>
</svg>
